<svg width="48" height="48" viewBox="0 0 48 48" fill="none" xmlns="http://www.w3.org/2000/svg">
<path fill-rule="evenodd" clip-rule="evenodd" d="M7.26707 5.9796C6.26498 6.58978 5.43945 7.92159 5.43945 10.1809V39.8609C5.43945 41.2846 6.63974 42.5009 8.15945 42.5009H23.4995V14.8209C23.4995 14.1097 23.2239 13.2287 22.7005 12.3982C22.1776 11.5687 21.4952 10.9289 20.8399 10.6081L11.9599 6.24815C11.9597 6.24806 11.9601 6.24824 11.9599 6.24815C9.87975 5.22998 8.27643 5.365 7.26707 5.9796ZM5.70684 3.41724C7.84239 2.1169 10.5794 2.23216 13.279 3.55369L22.159 7.91372C22.1588 7.91362 22.1592 7.91381 22.159 7.91372C23.4235 8.53295 24.4914 9.61334 25.2384 10.7986C25.985 11.9831 26.4995 13.4121 26.4995 14.8209V44.0009C26.4995 44.8293 25.8279 45.5009 24.9995 45.5009H8.15945C5.03917 45.5009 2.43945 42.9972 2.43945 39.8609V10.1809C2.43945 7.20026 3.56393 4.72207 5.70684 3.41724Z" fill="#4F7EF7"/>
<path fill-rule="evenodd" clip-rule="evenodd" d="M24.0556 19.675C24.4074 19.3902 24.869 19.2795 25.3117 19.3737L26.268 19.5772L35.2641 21.5964L35.268 21.5972L39.3214 22.4958C39.3209 22.4957 39.3219 22.4959 39.3214 22.4958C40.7743 22.8151 42.2962 23.3887 43.4696 24.5722C44.6623 25.7749 45.3329 27.4397 45.4159 29.6121C45.4401 29.813 45.4397 29.993 45.4395 30.0964C45.4395 30.1051 45.4395 30.1133 45.4395 30.1208V37.6808C45.4395 40.043 44.8948 42.0868 43.4602 43.5215C42.0255 44.9561 39.9817 45.5008 37.6195 45.5008H24.9995C24.1711 45.5008 23.4995 44.8293 23.4995 44.0008V20.8408C23.4995 20.3882 23.7039 19.9598 24.0556 19.675ZM26.4995 22.7038L34.611 24.5244L34.6149 24.5253L38.6749 25.4253L38.6776 25.4259C39.8643 25.6866 40.7433 26.0833 41.3394 26.6845C41.9018 27.2517 42.3694 28.1602 42.4202 29.7877C42.4222 29.8502 42.4281 29.9125 42.4378 29.9742C42.4379 29.9764 42.4381 29.9794 42.4382 29.9833C42.4387 29.9943 42.439 30.01 42.4393 30.0336L42.4395 30.1208V37.6808C42.4395 39.6387 41.9842 40.7548 41.3389 41.4002C40.6935 42.0455 39.5774 42.5008 37.6195 42.5008H26.4995V22.7038Z" fill="#4F7EF7"/>
<path opacity="0.4" fill-rule="evenodd" clip-rule="evenodd" d="M9.49951 18.0005C9.49951 17.1721 10.1711 16.5005 10.9995 16.5005H17.9395C18.7679 16.5005 19.4395 17.1721 19.4395 18.0005C19.4395 18.8289 18.7679 19.5005 17.9395 19.5005H10.9995C10.1711 19.5005 9.49951 18.8289 9.49951 18.0005Z" fill="#4F7EF7"/>
<path opacity="0.4" fill-rule="evenodd" clip-rule="evenodd" d="M9.49951 26.0005C9.49951 25.1721 10.1711 24.5005 10.9995 24.5005H17.9395C18.7679 24.5005 19.4395 25.1721 19.4395 26.0005C19.4395 26.8289 18.7679 27.5005 17.9395 27.5005H10.9995C10.1711 27.5005 9.49951 26.8289 9.49951 26.0005Z" fill="#4F7EF7"/>
<path fill-rule="evenodd" clip-rule="evenodd" d="M25.0021 19.8695C25.3577 19.5848 25.8235 19.4772 26.2679 19.577L35.2679 21.597C35.9528 21.7507 36.4395 22.3587 36.4395 23.0605V29.5005C36.4395 32.809 33.7479 35.5005 30.4395 35.5005C27.131 35.5005 24.4395 32.809 24.4395 29.5005V21.0405C24.4395 20.585 24.6465 20.1542 25.0021 19.8695ZM27.4395 22.9145V29.5005C27.4395 31.1521 28.7879 32.5005 30.4395 32.5005C32.091 32.5005 33.4395 31.1521 33.4395 29.5005V24.2612L27.4395 22.9145Z" fill="#4F7EF7"/>
<path fill-rule="evenodd" clip-rule="evenodd" d="M34.0006 21.8907C34.3553 21.606 34.82 21.4977 35.2641 21.5961L39.3213 22.4955C39.3218 22.4956 39.3223 22.4957 39.3227 22.4958C40.7757 22.8152 42.2961 23.3884 43.4696 24.5719C44.6772 25.7897 45.3496 27.4812 45.4187 29.6937C45.42 29.7347 45.4196 29.7758 45.4175 29.8167C45.2574 32.9657 42.647 35.5006 39.4395 35.5006C36.131 35.5006 33.4395 32.809 33.4395 29.5006V23.0606C33.4395 22.6057 33.6458 22.1754 34.0006 21.8907ZM36.4395 24.9295V29.5006C36.4395 31.1521 37.7879 32.5006 39.4395 32.5006C41.0124 32.5006 42.3094 31.2662 42.4179 29.722C42.3567 28.1355 41.8942 27.2438 41.3393 26.6842C40.7432 26.0831 39.8642 25.6863 38.6776 25.4256L38.6748 25.425L38.6748 25.425L36.4395 24.9295Z" fill="#4F7EF7"/>
</svg>
